<?xml version="1.0" encoding="utf-8"?>
<svg viewBox="-49.271 -164.108 535.209 70" xmlns="http://www.w3.org/2000/svg">
  <defs>
    <clipPath id="clip-0">
      <path id="path837" d="M -43.178 126.553 C -80.198 123.84 -116.525 106.999 -142.164 80.663 C -151.046 71.54 -155.88 65.59 -161.942 56.322 C -180.439 28.041 -189.333 -5.264 -187.082 -37.818 C -185.145 -65.819 -176.681 -91.318 -161.782 -114.037 C -150.276 -131.581 -132.345 -149.053 -114.545 -160.064 C -101.749 -167.979 -90.242 -172.928 -72.498 -178.15 C -52.251 -184.107 -41.951 -185.717 -23.937 -185.739 C 1.069 -185.77 21.262 -181.222 42.991 -170.667 C 68.795 -158.133 88.782 -140.739 104.48 -117.158 C 121.184 -92.066 129.597 -63.714 129.585 -32.556 C 129.58 -19.285 128.691 -10.934 125.988 1.205 C 124.37 8.469 119.724 23.652 119.26 23.189 C 119.122 23.049 119.84 20.483 120.858 17.486 C 126.258 1.578 128.78 -14.153 128.77 -31.857 C 128.749 -66.053 117.25 -98.884 95.791 -126.015 C 90.697 -132.456 78.609 -144.45 71.355 -150.26 C 48.477 -168.589 20.334 -180.149 -8.577 -183.095 C -12.057 -183.45 -19.616 -183.702 -25.376 -183.656 C -35.422 -183.575 -35.612 -183.551 -30.045 -183.072 C -26.853 -182.797 -20.922 -182.279 -16.864 -181.92 C -0.061 -180.433 17.497 -175.454 34.094 -167.469 C 42.3 -163.521 56.622 -154.798 57.663 -153.115 C 57.855 -152.804 55.911 -153.921 53.342 -155.598 C 40.391 -164.053 23.043 -171.28 6.3 -175.195 C -8.449 -178.645 -31.383 -180.017 -45.011 -178.266 C -70.161 -175.035 -91.933 -166.977 -112.651 -153.233 C -121.36 -147.455 -133.312 -137.342 -138.813 -131.095 C -159.016 -108.153 -171.792 -79.006 -175.422 -47.574 C -176.381 -39.275 -176.228 -20.969 -175.131 -12.703 C -170.428 22.75 -155.897 52.181 -131.051 76.576 C -122.822 84.655 -120.107 86.971 -112.632 92.288 C -94.032 105.521 -73.29 114.139 -48.981 118.736 C -40.623 120.317 -17.751 120.943 -7.846 119.864 C 11.778 117.724 28.974 112.042 46.071 102.049 C 57.717 95.243 65.663 88.979 76.904 77.746 C 87.407 67.25 92.871 60.466 99.643 49.509 C 117.846 20.06 125.225 -16.142 120.212 -51.4 C 119.837 -54.037 119.65 -56.315 119.796 -56.462 C 119.943 -56.608 120.515 -53.827 121.067 -50.282 C 126.194 -17.359 120.774 15.844 105.467 45.282 C 93.194 68.883 77.184 86.194 52.725 102.307 C 39.306 111.148 18.335 119.818 1.605 123.442 C -11.578 126.298 -29.582 127.549 -43.178 126.553 Z M -11.235 121.633 C -8.12 121.234 -5.672 120.807 -5.793 120.686 C -5.915 120.564 -11.092 120.768 -17.298 121.139 C -26.905 121.713 -30.076 121.661 -38.629 120.79 C -59.406 118.674 -76.101 113.755 -94.836 104.229 C -108.862 97.097 -120.963 88.272 -132.404 76.829 C -163.859 45.371 -180.664 0.992 -177.293 -41.718 C -176.125 -56.525 -173.587 -69.454 -169.315 -82.366 C -166.692 -90.295 -166.667 -90.415 -168.435 -86.665 C -172.385 -78.285 -176.474 -64.451 -178.495 -52.63 C -187.591 0.578 -166.916 55.312 -125.031 88.903 C -108.722 101.984 -91.699 110.975 -72.903 116.437 C -61.273 119.817 -54.76 121.007 -39.513 122.543 C -35.256 122.971 -17.121 122.388 -11.235 121.633 Z M -165.671 -92.419 C -165.671 -92.755 -165.938 -92.617 -166.263 -92.113 C -166.589 -91.609 -166.856 -90.922 -166.856 -90.586 C -166.856 -90.25 -166.589 -90.388 -166.263 -90.892 C -165.938 -91.396 -165.671 -92.083 -165.671 -92.419 Z M -120.45 51.149 C -120.45 34.754 -120.295 30.765 -119.666 31.006 C -119.234 31.172 -116.421 36.253 -113.413 42.298 L -107.945 53.289 L -102.27 41.951 C -99.148 35.716 -96.327 30.78 -96 30.982 C -95.186 31.485 -95.193 71.593 -96.007 71.593 C -96.385 71.593 -96.669 64.734 -96.771 53.115 L -96.932 34.637 L -101.935 44.484 C -104.687 49.9 -107.311 54.474 -107.766 54.649 C -108.337 54.868 -110.189 51.825 -113.757 44.801 L -118.922 34.637 L -119.084 53.115 C -119.186 64.734 -119.469 71.593 -119.848 71.593 C -120.231 71.593 -120.45 64.169 -120.45 51.149 Z M -91.723 70.829 C -91.672 68.485 -81.935 31.635 -81.255 31.208 C -80.719 30.873 -80.286 31.059 -79.992 31.751 C -79.501 32.904 -70.361 70.219 -70.361 71.069 C -70.361 71.357 -70.596 71.593 -70.883 71.593 C -71.171 71.593 -71.791 70.15 -72.262 68.386 L -73.119 65.179 L -80.914 65.008 C -86.826 64.879 -88.774 65.026 -88.973 65.619 C -89.118 66.049 -89.536 67.569 -89.901 68.997 C -90.51 71.375 -91.763 72.635 -91.723 70.829 Z M -73.654 62.583 C -73.83 61.995 -75.516 55.334 -77.401 47.78 C -79.285 40.227 -80.909 33.964 -81.01 33.863 C -81.111 33.762 -82.753 39.943 -84.659 47.597 C -86.564 55.252 -88.269 61.995 -88.446 62.583 C -88.741 63.562 -88.117 63.652 -81.05 63.652 C -73.985 63.652 -73.36 63.562 -73.654 62.583 Z M -66.551 51.283 C -66.369 28.3 -66.859 30.138 -61.323 31.67 C -56.018 33.138 -52.428 37.404 -51.637 43.178 C -51.051 47.449 -52.418 51.265 -55.714 54.561 L -58.538 57.386 L -54.977 64.489 C -52.812 68.806 -51.721 71.593 -52.195 71.593 C -52.625 71.593 -54.537 68.458 -56.444 64.626 L -59.913 57.658 L -62.235 58.197 C -63.513 58.494 -64.764 58.743 -65.016 58.751 C -65.268 58.759 -65.474 61.652 -65.474 65.179 C -65.474 69.105 -65.714 71.593 -66.093 71.593 C -66.502 71.593 -66.658 64.702 -66.551 51.283 Z M -57.624 54.673 C -54.612 52.376 -52.39 47.205 -52.88 43.632 C -53.67 37.872 -57.851 33.361 -63.048 32.664 L -65.474 32.338 L -65.474 44.534 C -65.474 51.241 -65.323 56.88 -65.138 57.065 C -64.46 57.743 -59.635 56.207 -57.624 54.673 Z M -48.37 51.435 C -48.37 33.924 -48.25 31.277 -47.454 31.277 C -46.703 31.277 -46.538 32.343 -46.538 37.2 L -46.538 43.123 L -44.808 40.395 C -42.823 37.265 -40.091 34.807 -36.641 33.047 C -33.766 31.58 -28.212 30.761 -28.212 31.803 C -28.212 32.186 -28.889 32.499 -29.716 32.499 C -32.384 32.499 -37.813 34.928 -40.525 37.335 L -43.164 39.677 L -39.201 43.88 C -34.522 48.841 -31.085 55.059 -29.417 61.581 C -28.123 66.638 -27.83 71.593 -28.823 71.593 C -29.159 71.593 -29.439 70.7 -29.445 69.608 C -29.466 65.668 -31.292 58.974 -33.654 54.184 C -35.898 49.632 -42.206 41.662 -43.564 41.662 C -43.889 41.662 -44.685 42.83 -45.332 44.258 C -46.371 46.545 -46.513 48.328 -46.524 59.224 C -46.536 69.806 -46.67 71.593 -47.454 71.593 C -48.25 71.593 -48.37 68.946 -48.37 51.435 Z M -24.403 51.337 L -24.242 31.081 L -21.493 30.95 C -18.279 30.796 -16.606 31.132 -16.606 31.929 C -16.606 32.243 -18.118 32.499 -19.966 32.499 L -23.325 32.499 L -23.325 38.302 L -23.325 44.105 L -19.966 44.105 C -18.118 44.105 -16.606 44.38 -16.606 44.716 C -16.606 45.052 -18.124 45.327 -19.978 45.327 L -23.351 45.327 L -23.185 57.697 L -23.02 70.066 L -19.998 70.121 C -15.202 70.207 -15.706 71.593 -20.534 71.593 L -24.564 71.593 Z M -7.444 52.046 L -7.444 32.499 L -10.498 32.499 C -12.564 32.499 -13.552 32.247 -13.552 31.721 C -13.552 31.136 -12.005 30.968 -7.291 31.041 C 0.175 31.157 -0.114 31.123 -0.114 31.888 C -0.114 32.224 -1.488 32.499 -3.168 32.499 L -6.222 32.499 L -6.222 52.046 C -6.222 64.67 -6.438 71.593 -6.833 71.593 C -7.228 71.593 -7.444 64.67 -7.444 52.046 Z M 15.158 51.537 C 15.158 40.506 15.299 31.34 15.472 31.167 C 16.186 30.453 22.218 31.952 24.375 33.379 C 25.651 34.224 27.467 36.227 28.41 37.831 C 29.823 40.235 30.12 41.441 30.101 44.716 C 30.059 52.021 25.804 57.133 18.649 58.476 L 16.379 58.901 L 16.379 65.247 C 16.379 69.071 16.136 71.593 15.768 71.593 C 15.374 71.593 15.158 64.501 15.158 51.537 Z M 22.768 55.484 C 26.403 53.53 28.9 49.125 28.839 44.775 C 28.812 42.895 28.353 40.532 27.817 39.524 C 25.644 35.433 21.513 32.499 17.926 32.499 L 16.379 32.499 L 16.379 44.614 C 16.379 51.278 16.557 56.908 16.775 57.125 C 17.35 57.7 19.987 56.978 22.768 55.484 Z M 35.316 52.046 L 35.316 32.499 L 32.261 32.499 C 30.581 32.499 29.207 32.224 29.207 31.888 C 29.207 31.194 28.862 31.237 36.385 30.998 C 40.86 30.856 42.035 30.993 42.035 31.659 C 42.035 32.248 41.212 32.499 39.286 32.499 L 36.537 32.499 L 36.537 52.046 C 36.537 64.67 36.321 71.593 35.926 71.593 C 35.532 71.593 35.316 64.67 35.316 52.046 Z M 53.03 58.756 L 53.03 45.919 L 49.365 38.608 C 45.426 30.75 45.394 30.667 46.305 30.667 C 46.639 30.667 48.428 33.69 50.281 37.386 C 52.135 41.081 53.784 44.105 53.946 44.105 C 54.109 44.105 55.758 41.081 57.611 37.386 C 59.465 33.69 61.254 30.667 61.587 30.667 C 62.499 30.667 62.467 30.75 58.527 38.608 L 54.862 45.919 L 54.862 58.756 C 54.862 69.76 54.732 71.593 53.946 71.593 C 53.161 71.593 53.03 69.76 53.03 58.756 Z M 115.966 30.361 C 115.966 30.025 116.232 29.338 116.558 28.834 C 116.884 28.33 117.15 28.193 117.15 28.529 C 117.15 28.864 116.884 29.552 116.558 30.056 C 116.232 30.559 115.966 30.697 115.966 30.361 Z M 117.187 27.307 C 117.187 26.971 117.454 26.284 117.78 25.78 C 118.105 25.276 118.372 25.138 118.372 25.474 C 118.372 25.81 118.105 26.498 117.78 27.002 C 117.454 27.506 117.187 27.643 117.187 27.307 Z M -120.45 -11.787 L -120.45 -45.078 L -118.701 -45.078 C -109.575 -45.078 -101.546 -40.002 -97.664 -31.777 C -95.956 -28.161 -95.725 -27.047 -95.731 -22.477 C -95.736 -18.144 -96.007 -16.705 -97.366 -13.781 C -101.171 -5.597 -106.549 -1.61 -115.716 -0.178 L -118.007 0.18 L -118.007 10.471 C -118.007 19.292 -118.145 20.815 -118.973 21.133 C -119.504 21.337 -120.054 21.504 -120.195 21.504 C -120.335 21.504 -120.45 6.523 -120.45 -11.787 Z M -109.686 -4.133 C -101.447 -7.74 -96.65 -17.19 -98.439 -26.287 C -98.852 -28.382 -99.59 -30.873 -100.08 -31.821 C -101.354 -34.284 -105.114 -38.303 -107.632 -39.892 C -109.57 -41.116 -114.826 -42.635 -117.121 -42.635 C -117.877 -42.635 -118.007 -39.675 -118.007 -22.408 L -118.007 -2.18 L -115.105 -2.606 C -113.509 -2.839 -111.07 -3.527 -109.686 -4.133 Z M -90.213 20.995 C -90.381 20.827 -90.519 5.892 -90.519 -12.194 C -90.519 -44.671 -90.503 -45.078 -89.297 -45.078 C -88.122 -45.078 -88.075 -44.671 -88.075 -34.388 L -88.075 -23.699 L -78.657 -23.699 C -73.477 -23.699 -68.793 -23.87 -68.247 -24.079 C -67.383 -24.411 -67.266 -25.761 -67.338 -34.616 C -67.412 -43.759 -67.317 -44.773 -66.392 -44.773 C -65.443 -44.773 -65.357 -42.248 -65.266 -11.711 C -65.17 20.892 -65.256 22.536 -66.969 20.824 C -67.139 20.654 -67.298 11.117 -67.322 -0.37 L -67.367 -21.255 L -77.721 -21.255 L -88.075 -21.255 L -88.075 0.023 C -88.075 18.529 -88.194 21.3 -88.992 21.3 C -89.496 21.3 -90.045 21.163 -90.213 20.995 Z M 11.493 -11.787 C 11.493 -45.077 11.493 -45.078 12.761 -45.078 C 14.059 -45.078 19.544 -41.155 24.156 -36.928 C 29.919 -31.646 36.401 -21.532 40.267 -11.787 L 41.963 -7.511 L 41.999 -26.339 C 42.031 -43.07 42.141 -45.146 42.989 -44.97 C 43.837 -44.794 43.955 -41.129 44.057 -11.753 C 44.166 19.304 44.109 21.272 43.104 21.347 C 42.154 21.419 42.035 20.769 42.033 15.51 C 42.031 8.343 41.077 0.135 39.554 -5.824 C 36.365 -18.296 27.974 -31.089 17.685 -39.163 L 13.936 -42.105 L 13.936 -10.671 C 13.936 17.428 13.833 20.802 12.97 21.133 C 12.438 21.337 11.889 21.504 11.748 21.504 C 11.608 21.504 11.492 6.523 11.492 -11.787 Z M 55.321 21.023 L 49.365 20.849 L 49.365 -12.135 L 49.365 -45.12 L 55.874 -44.946 C 61.53 -44.796 62.404 -44.633 62.54 -43.704 C 62.678 -42.754 62.088 -42.635 57.252 -42.635 L 51.809 -42.635 L 51.809 -33.167 L 51.809 -23.699 L 57.001 -23.699 C 61.785 -23.699 62.193 -23.603 62.193 -22.477 C 62.193 -21.351 61.785 -21.255 57.001 -21.255 L 51.809 -21.255 L 51.809 -1.427 L 51.809 18.402 L 57.146 18.579 C 61.498 18.723 62.519 18.938 62.674 19.747 C 62.932 21.098 62.197 21.225 55.321 21.023 Z M -35.375 19.953 C -49.456 16.16 -59.976 2.622 -59.976 -11.705 C -59.976 -28.414 -47.758 -42.369 -31.204 -44.569 C -11.567 -47.177 5.957 -31.864 5.988 -12.068 C 6.012 2.943 -4.213 16.166 -18.776 19.96 C -23.184 21.108 -31.1 21.105 -35.375 19.952 Z M -19.147 17.459 C -5.806 14.113 3.551 2.01 3.551 -11.9 C 3.551 -31.261 -14.351 -45.895 -33.222 -41.96 C -44.092 -39.693 -53.647 -30.68 -56.413 -20.083 C -62.38 2.776 -42.093 23.213 -19.147 17.459 Z M 119.098 -58.517 C 119.098 -59.357 119.237 -59.7 119.406 -59.281 C 119.575 -58.86 119.575 -58.173 119.406 -57.753 C 119.236 -57.334 119.098 -57.677 119.098 -58.517 Z M 118.439 -61.317 C 118.468 -62.028 118.613 -62.173 118.808 -61.686 C 118.984 -61.245 118.963 -60.718 118.76 -60.515 C 118.557 -60.312 118.412 -60.672 118.439 -61.317 Z M 117.828 -63.76 C 117.857 -64.472 118.002 -64.616 118.197 -64.129 C 118.374 -63.688 118.352 -63.161 118.149 -62.958 C 117.946 -62.755 117.801 -63.116 117.828 -63.76 Z M -45.678 -64.015 C -51.972 -65.307 -57.499 -69.691 -60.178 -75.513 C -61.193 -77.72 -61.493 -79.549 -61.498 -83.562 C -61.503 -88.295 -61.324 -89.085 -59.465 -92.512 C -55.822 -99.228 -49.868 -102.759 -42.262 -102.718 C -39.742 -102.704 -36.922 -102.38 -35.995 -101.997 L -34.309 -101.302 L -36.327 -98.659 C -40.11 -93.703 -41.305 -90.064 -41.286 -83.562 C -41.267 -76.861 -39.955 -72.688 -36.407 -68.041 L -34.26 -65.229 L -35.665 -64.698 C -38.003 -63.813 -43.026 -63.471 -45.678 -64.015 Z M -19.412 -64.021 C -25.526 -65.265 -30.782 -69.227 -33.55 -74.68 C -35.447 -78.418 -36.066 -84.702 -34.935 -88.741 L -34.165 -91.493 L -31.985 -89.579 C -27.234 -85.407 -18.953 -83.153 -12.311 -84.223 C -7.887 -84.936 -2.998 -87.015 -0.212 -89.369 C 1.45 -90.773 1.93 -90.933 2.375 -90.229 C 4.244 -87.279 3.801 -79.111 1.529 -74.627 C -2.293 -67.085 -11.515 -62.414 -19.412 -64.021 Z M 117.217 -66.204 C 117.246 -66.915 117.391 -67.06 117.586 -66.573 C 117.762 -66.132 117.741 -65.605 117.538 -65.402 C 117.335 -65.199 117.191 -65.56 117.217 -66.204 Z M -21.035 -90.367 C -23.439 -91.045 -23.929 -92.074 -22.437 -93.312 C -20.965 -94.534 -18.633 -98.932 -17.589 -102.456 C -15.234 -110.406 -17.281 -120.046 -22.544 -125.783 C -23.906 -127.267 -23.932 -127.414 -22.905 -127.811 C -18.204 -129.627 -11.367 -129.245 -6.793 -126.912 C -5.574 -126.29 -3.215 -124.291 -1.551 -122.471 C 7.319 -112.765 4.18 -97.191 -7.747 -91.731 C -11.474 -90.025 -17.593 -89.396 -21.035 -90.367 Z M -61.126 -104.601 C -62.759 -111.088 -61.165 -117.469 -56.658 -122.481 C -45.557 -134.827 -25.377 -128.765 -22.774 -112.303 C -22.295 -109.271 -22.948 -103.292 -23.863 -102.344 C -24.107 -102.091 -25.254 -102.603 -26.412 -103.482 C -31.971 -107.699 -39.356 -109.599 -46.121 -108.551 C -50.095 -107.936 -56.772 -104.962 -58.522 -103.029 C -60.021 -101.372 -60.365 -101.58 -61.126 -104.601 Z" style="display: inline; fill: rgb(0, 0, 0); stroke-width: 1.33333;"/>
    </clipPath>
  </defs>
  <g transform="matrix(1, 0, 0, 1, 0.795146, -31.010696)">
    <g transform="matrix(1, 0, 0, 1, 14.135319, -1.81193)">
      <rect x="-64.201" y="-131.285" width="70" height="70" style="clip-path: url(#clip-0); fill: rgb(255, 255, 255);"/>
      <path d="M 21.729 -95.505 L 21.729 -125.751 L 23.318 -125.751 C 31.609 -125.751 38.904 -121.139 42.431 -113.666 C 43.982 -110.381 44.192 -109.369 44.187 -105.217 C 44.182 -101.28 43.936 -99.973 42.701 -97.316 C 39.245 -89.881 34.359 -86.259 26.03 -84.958 L 23.949 -84.633 L 23.949 -75.283 C 23.949 -67.269 23.823 -65.885 23.071 -65.596 C 22.589 -65.411 22.089 -65.259 21.961 -65.259 C 21.833 -65.259 21.729 -78.87 21.729 -95.505 Z M 31.509 -88.551 C 38.994 -91.828 43.352 -100.414 41.726 -108.678 C 41.352 -110.582 40.681 -112.845 40.235 -113.706 C 39.078 -115.944 35.662 -119.595 33.375 -121.039 C 31.614 -122.15 26.839 -123.531 24.754 -123.531 C 24.067 -123.531 23.949 -120.842 23.949 -105.154 L 23.949 -86.777 L 26.585 -87.163 C 28.035 -87.376 30.251 -88 31.509 -88.551 Z M 49.2 -65.721 C 49.048 -65.874 48.923 -79.443 48.923 -95.875 C 48.923 -125.381 48.937 -125.751 50.032 -125.751 C 51.1 -125.751 51.143 -125.381 51.143 -116.039 L 51.143 -106.326 L 59.699 -106.326 C 64.405 -106.326 68.661 -106.482 69.156 -106.672 C 69.942 -106.974 70.048 -108.201 69.983 -116.246 C 69.916 -124.552 70.002 -125.473 70.843 -125.473 C 71.705 -125.473 71.783 -123.18 71.865 -95.435 C 71.953 -65.815 71.874 -64.321 70.318 -65.877 C 70.164 -66.031 70.02 -74.696 69.997 -85.132 L 69.956 -104.107 L 51.143 -104.107 L 51.143 -84.775 C 51.143 -67.962 51.034 -65.444 50.31 -65.444 C 49.852 -65.444 49.353 -65.569 49.2 -65.721 Z M 141.602 -95.505 C 141.602 -125.75 141.602 -125.751 142.754 -125.751 C 143.934 -125.751 148.918 -122.186 153.108 -118.346 C 158.344 -113.547 164.232 -104.358 167.745 -95.505 L 169.286 -91.62 L 169.318 -108.726 C 169.347 -123.926 169.448 -125.812 170.218 -125.653 C 170.988 -125.493 171.095 -122.163 171.189 -95.474 C 171.287 -67.257 171.236 -65.47 170.322 -65.401 C 169.459 -65.336 169.351 -65.927 169.349 -70.705 C 169.348 -77.216 168.481 -84.673 167.097 -90.087 C 164.2 -101.418 156.576 -113.041 147.228 -120.377 L 143.822 -123.049 L 143.822 -94.491 C 143.822 -68.961 143.729 -65.897 142.944 -65.596 C 142.461 -65.411 141.962 -65.259 141.835 -65.259 C 141.707 -65.259 141.602 -78.87 141.602 -95.505 Z M 181.422 -65.695 L 176.011 -65.854 L 176.011 -125.788 L 181.925 -125.631 C 187.062 -125.494 187.857 -125.346 187.98 -124.502 C 188.106 -123.639 187.57 -123.531 183.176 -123.531 L 178.23 -123.531 L 178.23 -106.326 L 182.948 -106.326 C 187.295 -106.326 187.665 -106.239 187.665 -105.217 C 187.665 -104.194 187.295 -104.107 182.948 -104.107 L 178.23 -104.107 L 178.23 -68.077 L 183.08 -67.917 C 187.034 -67.786 187.962 -67.59 188.102 -66.855 C 188.337 -65.628 187.669 -65.512 181.422 -65.695 Z M 99.022 -66.668 C 86.23 -70.113 76.671 -82.414 76.671 -95.43 C 76.671 -110.61 87.772 -123.289 102.811 -125.287 C 120.652 -127.658 136.573 -113.745 136.601 -95.76 C 136.623 -82.122 127.334 -70.108 114.103 -66.662 C 110.098 -65.619 102.906 -65.622 99.022 -66.668 Z M 113.766 -68.934 C 125.887 -71.974 134.388 -82.969 134.388 -95.607 C 134.388 -113.198 118.123 -126.493 100.978 -122.917 C 91.102 -120.858 82.422 -112.669 79.908 -103.042 C 74.487 -82.274 92.918 -63.706 113.766 -68.934 Z" style="fill: rgb(255, 255, 255);"/>
      <path d="M 193.992 -95.863 C 193.992 -120.746 194.228 -126.8 195.182 -126.434 C 195.837 -126.183 200.108 -118.47 204.673 -109.296 L 212.972 -92.616 L 221.584 -109.822 C 226.321 -119.285 230.603 -126.777 231.1 -126.47 C 232.335 -125.707 232.324 -64.836 231.089 -64.836 C 230.515 -64.836 230.084 -75.246 229.93 -92.879 L 229.685 -120.923 L 222.091 -105.978 C 217.915 -97.759 213.933 -90.817 213.243 -90.552 C 212.376 -90.22 209.566 -94.838 204.15 -105.497 L 196.31 -120.923 L 196.065 -92.879 C 195.91 -75.246 195.481 -64.836 194.906 -64.836 C 194.324 -64.836 193.993 -76.104 193.993 -95.863 Z M 237.59 -65.994 C 237.667 -69.553 252.445 -125.48 253.479 -126.127 C 254.291 -126.636 254.948 -126.353 255.396 -125.303 C 256.14 -123.552 270.011 -66.921 270.011 -65.632 C 270.011 -65.194 269.655 -64.836 269.219 -64.836 C 268.783 -64.836 267.841 -67.026 267.126 -69.703 L 265.826 -74.57 L 253.995 -74.829 C 245.022 -75.026 242.067 -74.802 241.763 -73.902 C 241.544 -73.249 240.91 -70.942 240.355 -68.775 C 239.431 -65.167 237.53 -63.254 237.59 -65.994 Z M 265.014 -78.509 C 264.747 -79.402 262.187 -89.512 259.327 -100.976 C 256.468 -112.44 254.002 -121.945 253.849 -122.098 C 253.696 -122.251 251.204 -112.871 248.312 -101.254 C 245.419 -89.637 242.833 -79.402 242.564 -78.509 C 242.116 -77.024 243.064 -76.887 253.788 -76.887 C 264.511 -76.887 265.46 -77.024 265.014 -78.509 Z M 275.794 -95.659 C 276.07 -130.542 275.326 -127.751 283.728 -125.426 C 291.779 -123.198 297.228 -116.725 298.429 -107.96 C 299.317 -101.478 297.243 -95.686 292.241 -90.685 L 287.954 -86.398 L 293.36 -75.617 C 296.645 -69.066 298.301 -64.836 297.581 -64.836 C 296.929 -64.836 294.027 -69.594 291.132 -75.41 L 285.869 -85.985 L 282.343 -85.166 C 280.405 -84.716 278.506 -84.338 278.124 -84.326 C 277.741 -84.312 277.428 -79.924 277.428 -74.57 C 277.428 -68.612 277.064 -64.836 276.489 -64.836 C 275.868 -64.836 275.632 -75.294 275.794 -95.659 Z M 289.342 -90.515 C 293.913 -94.001 297.285 -101.849 296.542 -107.271 C 295.344 -116.014 288.997 -122.86 281.111 -123.918 L 277.428 -124.412 L 277.428 -105.903 C 277.428 -95.723 277.658 -87.165 277.937 -86.885 C 278.966 -85.856 286.29 -88.187 289.342 -90.515 Z M 303.386 -95.429 C 303.386 -122.005 303.569 -126.022 304.777 -126.022 C 305.918 -126.022 306.167 -124.405 306.167 -117.033 L 306.167 -108.044 L 308.793 -112.184 C 311.805 -116.935 315.951 -120.665 321.188 -123.336 C 325.551 -125.562 333.979 -126.806 333.979 -125.224 C 333.979 -124.643 332.952 -124.168 331.697 -124.168 C 327.649 -124.168 319.409 -120.481 315.293 -116.828 L 311.287 -113.274 L 317.303 -106.895 C 324.404 -99.366 329.62 -89.928 332.151 -80.031 C 334.114 -72.355 334.561 -64.836 333.052 -64.836 C 332.543 -64.836 332.118 -66.191 332.11 -67.848 C 332.077 -73.829 329.305 -83.987 325.721 -91.257 C 322.315 -98.166 312.742 -110.262 310.68 -110.262 C 310.187 -110.262 308.98 -108.489 307.997 -106.321 C 306.421 -102.851 306.205 -100.145 306.188 -83.609 C 306.169 -67.548 305.966 -64.836 304.777 -64.836 C 303.569 -64.836 303.386 -68.852 303.386 -95.429 Z M 339.761 -95.578 L 340.005 -126.32 L 344.177 -126.519 C 349.055 -126.752 351.594 -126.243 351.594 -125.032 C 351.594 -124.556 349.3 -124.168 346.495 -124.168 L 341.396 -124.168 L 341.396 -106.553 L 346.495 -106.553 C 349.3 -106.553 351.594 -106.136 351.594 -105.626 C 351.594 -105.117 349.291 -104.699 346.476 -104.699 L 341.358 -104.699 L 341.86 -67.153 L 346.445 -67.07 C 353.725 -66.939 352.96 -64.835 345.633 -64.835 L 339.517 -64.835 Z M 365.5 -94.501 L 365.5 -124.168 L 360.865 -124.168 C 357.729 -124.168 356.229 -124.55 356.229 -125.348 C 356.229 -126.237 358.578 -126.492 365.732 -126.381 C 377.064 -126.204 376.625 -126.256 376.625 -125.095 C 376.625 -124.585 374.539 -124.168 371.989 -124.168 L 367.354 -124.168 L 367.354 -94.501 C 367.354 -75.342 367.026 -64.836 366.427 -64.836 C 365.828 -64.836 365.5 -75.342 365.5 -94.501 Z M 399.801 -95.274 C 399.801 -112.015 400.016 -125.928 400.279 -126.19 C 401.362 -127.274 410.517 -124.999 413.79 -122.833 C 415.728 -121.55 418.484 -118.51 419.914 -116.077 C 422.059 -112.427 422.509 -110.597 422.48 -105.626 C 422.418 -94.54 415.96 -86.781 405.1 -84.743 L 401.656 -84.098 L 401.656 -74.466 C 401.656 -68.664 401.287 -64.836 400.728 -64.836 C 400.13 -64.836 399.801 -75.6 399.801 -95.274 Z M 411.352 -89.284 C 416.868 -92.249 420.658 -98.935 420.565 -105.536 C 420.525 -108.39 419.827 -111.977 419.015 -113.507 C 415.716 -119.715 409.447 -124.168 404.003 -124.168 L 401.656 -124.168 L 401.656 -105.781 C 401.656 -95.668 401.926 -87.123 402.257 -86.793 C 403.129 -85.921 407.132 -87.016 411.352 -89.284 Z M 430.395 -94.501 L 430.395 -124.168 L 425.759 -124.168 C 423.21 -124.168 421.124 -124.585 421.124 -125.095 C 421.124 -126.148 420.601 -126.083 432.017 -126.446 C 438.809 -126.661 440.593 -126.453 440.593 -125.443 C 440.593 -124.55 439.343 -124.168 436.421 -124.168 L 432.249 -124.168 L 432.249 -94.501 C 432.249 -75.342 431.921 -64.836 431.322 -64.836 C 430.723 -64.836 430.395 -75.342 430.395 -94.501 Z M 457.28 -84.318 L 457.28 -103.801 L 451.718 -114.897 C 445.739 -126.822 445.691 -126.949 447.074 -126.949 C 447.58 -126.949 450.295 -122.36 453.108 -116.751 C 455.921 -111.143 458.424 -106.554 458.671 -106.554 C 458.917 -106.554 461.42 -111.143 464.233 -116.751 C 467.046 -122.36 469.761 -126.949 470.267 -126.949 C 471.651 -126.949 471.602 -126.822 465.624 -114.897 L 460.061 -103.801 L 460.061 -84.318 C 460.061 -67.618 459.862 -64.836 458.671 -64.836 C 457.478 -64.836 457.28 -67.618 457.28 -84.318 Z" style="fill: rgb(255, 255, 255);"/>
    </g>
  </g>
</svg>